<?xml version="1.0" standalone="no"?>
<!DOCTYPE svg PUBLIC "-//W3C//DTD SVG 20010904//EN"
 "http://www.w3.org/TR/2001/REC-SVG-20010904/DTD/svg10.dtd">
<svg version="1.0" xmlns="http://www.w3.org/2000/svg"
 width="1024.000000pt" height="1024.000000pt" viewBox="0 0 1024.000000 1024.000000"
 preserveAspectRatio="xMidYMid meet">
<metadata>
Created by potrace 1.14, written by Peter Selinger 2001-2017
</metadata>
<g transform="translate(0.000000,1024.000000) scale(0.100000,-0.100000)"
fill="#000000" stroke="none">
<path d="M6574 8801 c-125 -32 -185 -171 -125 -288 90 -177 371 -102 371 100
0 124 -125 219 -246 188z"/>
<path d="M3049 8755 c-59 -32 -82 -123 -46 -179 23 -35 79 -59 118 -51 41 9
86 50 99 90 10 29 8 41 -9 80 -29 67 -101 93 -162 60z"/>
<path d="M3980 8559 c-121 -26 -279 -78 -367 -123 -337 -169 -621 -502 -743
-869 -22 -64 -30 -75 -162 -205 -282 -277 -454 -512 -613 -837 -359 -736 -439
-1559 -230 -2370 114 -443 300 -828 579 -1203 148 -198 435 -486 627 -630 506
-377 1106 -608 1743 -671 137 -14 494 -14 646 -1 648 57 1295 317 1840 739
105 81 324 294 435 421 418 482 691 1116 781 1810 22 174 30 525 15 691 -59
643 -301 1287 -642 1706 -90 110 -208 232 -306 315 -89 76 -123 125 -123 182
0 49 13 79 56 126 l37 41 -6 168 c-4 93 -11 180 -16 194 -5 13 -25 42 -43 62
-86 99 -240 101 -335 6 -79 -79 -89 -179 -30 -307 46 -101 50 -171 13 -249
-25 -56 -88 -117 -144 -143 -20 -9 -52 -29 -70 -44 -54 -46 -123 -75 -252
-108 -68 -17 -162 -47 -209 -67 -47 -19 -94 -36 -103 -36 -9 -1 -15 -4 -12 -8
2 -4 -2 -9 -9 -12 -8 -3 -13 4 -13 19 0 17 4 23 16 19 8 -2 28 -1 45 3 28 8
28 9 7 14 -12 3 -22 2 -22 -3 0 -5 -5 -9 -11 -9 -8 0 -8 4 1 14 9 11 18 13 37
5 14 -5 26 -8 27 -7 0 2 7 13 14 25 12 24 17 51 6 40 -9 -9 -46 12 -40 22 9
14 56 0 56 -16 0 -20 27 -46 35 -33 3 5 1 10 -4 10 -6 0 -11 7 -11 15 0 10 7
14 23 12 12 -2 16 -2 8 0 -12 4 -12 6 0 15 10 7 6 8 -15 5 -17 -3 -40 -1 -53
4 -22 8 -70 -11 -109 -42 -6 -5 -14 -6 -18 -2 -4 4 -4 0 0 -10 4 -13 2 -16 -9
-11 -14 5 -81 -27 -192 -93 -111 -66 -323 -198 -377 -234 -31 -22 -59 -39 -61
-39 -3 0 -48 -27 -101 -61 -53 -33 -123 -73 -156 -88 -33 -16 -57 -30 -55 -33
2 -2 -4 -4 -13 -5 -9 -1 -42 -8 -72 -16 -30 -8 -77 -17 -103 -20 -42 -4 -47
-2 -42 12 38 96 63 370 41 446 -8 27 -10 22 -32 -63 -29 -119 -84 -226 -160
-316 -64 -75 -96 -103 -204 -177 -88 -61 -149 -91 -255 -127 -243 -83 -442
-90 -669 -26 -96 27 -233 92 -308 146 -84 60 -196 175 -244 248 -16 25 -31 47
-34 50 -7 6 -63 121 -89 182 -12 26 -21 59 -21 73 0 15 -4 24 -8 21 -5 -3 -9
9 -9 27 0 18 -4 91 -8 162 -9 158 2 212 75 360 155 316 473 570 788 631 183
35 400 26 552 -22 93 -29 217 -92 290 -147 116 -87 337 -318 324 -339 -4 -7
-3 -8 4 -4 7 4 12 2 12 -4 0 -6 4 -8 10 -5 5 3 7 0 4 -8 -3 -9 7 -23 25 -36
17 -12 28 -28 25 -35 -3 -7 2 -19 11 -26 10 -8 15 -9 15 -2 0 6 7 9 15 6 9 -4
15 0 15 9 0 34 77 27 115 -10 14 -14 25 -21 25 -14 0 6 9 11 19 11 11 0 21 4
23 10 2 5 157 10 399 11 224 0 402 5 410 10 9 7 4 8 -16 3 -21 -4 -13 3 25 21
30 15 60 28 67 28 7 0 11 5 10 11 -1 6 4 10 11 8 8 -1 11 2 8 6 -3 5 3 17 13
26 10 10 21 14 23 9 3 -4 3 -3 2 4 -1 6 6 34 17 62 27 72 26 186 -2 245 -27
58 -79 110 -138 140 l-47 24 -544 7 -545 7 -120 69 c-197 112 -406 185 -595
209 -140 17 -371 12 -480 -11z m1295 -876 c-9 -8 -18 -13 -21 -10 -8 8 19 36
29 30 4 -2 0 -11 -8 -20z m1035 -546 c0 -7 -26 -25 -57 -40 -32 -15 -50 -21
-41 -14 17 13 16 15 -5 24 -21 10 -21 11 5 9 14 0 24 -4 21 -8 -2 -5 -2 -8 2
-8 11 0 50 25 58 38 10 16 17 15 17 -1z m-215 -107 c-8 -13 1 -13 27 1 11 6
18 7 15 2 -3 -5 -27 -19 -54 -32 -26 -13 -57 -31 -68 -40 -19 -15 -19 -15 -5
3 8 11 30 25 47 33 18 7 32 17 32 21 -2 12 1 22 7 22 3 0 2 -4 -1 -10z m1220
-79 c264 -70 496 -260 618 -506 78 -157 118 -268 143 -395 17 -88 18 -328 1
-311 -6 6 -11 20 -12 32 -1 13 -9 23 -19 25 -9 1 -43 27 -76 58 -33 30 -91 77
-128 103 -37 26 -68 51 -70 55 -2 5 -10 8 -17 8 -14 0 -116 48 -125 59 -3 3
-14 7 -25 7 -11 1 -46 9 -78 17 -168 46 -365 43 -570 -9 -255 -64 -434 -154
-892 -445 -44 -28 -147 -93 -230 -145 -82 -52 -184 -116 -225 -143 -41 -27
-145 -93 -230 -146 -85 -54 -184 -117 -220 -140 -232 -150 -321 -202 -461
-271 -451 -221 -1053 -197 -1549 63 -130 68 -276 165 -273 180 2 7 -3 10 -11
7 -19 -7 -233 202 -310 304 -118 156 -208 359 -236 534 -18 109 -8 301 19 402
59 213 168 406 331 583 90 98 85 101 86 -61 1 -154 16 -250 63 -389 114 -335
375 -626 681 -758 177 -76 340 -105 550 -96 238 10 439 58 640 154 141 67 62
17 1067 671 221 144 450 291 510 328 211 128 396 206 572 239 113 22 371 14
476 -14z m-1335 -11 c0 -3 -10 -11 -21 -19 -18 -10 -23 -10 -30 0 -4 7 -6 16
-3 20 4 8 54 7 54 -1z m-128 -82 c-5 -5 -17 -6 -26 -2 -13 5 -14 9 -5 14 16
11 43 0 31 -12z m-32 -12 c0 -2 -17 -16 -37 -31 l-38 -26 35 30 c34 31 40 35
40 27z m-200 -130 c0 -2 -12 -11 -27 -20 l-28 -17 24 20 c23 21 31 25 31 17z
m-60 -41 c0 -2 -10 -10 -22 -16 -21 -11 -22 -11 -9 4 13 16 31 23 31 12z m-74
-48 c-10 -7 -53 -35 -95 -63 -92 -61 -114 -73 -81 -43 14 12 24 26 22 31 -1 5
2 7 7 4 5 -3 42 14 82 39 40 25 76 45 79 44 3 0 -3 -6 -14 -12z m-167 -80 c-2
-1 -13 -9 -24 -17 -19 -14 -19 -14 -6 3 7 9 18 17 24 17 6 0 8 -1 6 -3z m-103
-83 c-3 -19 -104 -86 -111 -74 -4 6 -1 9 7 8 7 -2 12 3 10 10 -1 8 2 11 8 7 6
-3 17 1 26 9 12 12 12 16 2 16 -18 1 26 37 45 37 8 0 14 -6 13 -13z m-116 -88
c0 -3 -15 -14 -32 -26 l-33 -22 30 26 c31 27 35 29 35 22z m2319 -656 c224
-46 434 -198 578 -417 106 -163 120 -221 88 -374 -18 -90 -55 -166 -104 -213
-37 -37 -40 -37 -62 -22 -13 9 -37 33 -54 54 -39 50 -121 118 -197 165 -190
115 -472 129 -788 37 -91 -26 -316 -135 -465 -225 -60 -37 -125 -76 -143 -86
-18 -10 -74 -44 -125 -76 -50 -31 -180 -110 -287 -176 -107 -66 -226 -139
-265 -162 -38 -23 -131 -79 -205 -125 -561 -343 -625 -379 -825 -455 -435
-165 -878 -177 -1300 -34 -285 97 -495 227 -700 433 -268 269 -404 587 -388
911 2 50 5 105 5 123 1 21 4 28 10 20 5 -8 8 0 8 22 1 33 1 34 15 16 16 -21
21 -10 6 13 -6 9 -4 19 5 28 8 8 12 18 9 22 -2 5 6 8 18 8 41 1 48 3 41 14 -4
8 -9 7 -15 -2 -6 -10 -9 -10 -9 -2 0 19 21 27 31 12 5 -8 6 -20 4 -28 -3 -8
-2 -17 2 -20 14 -11 117 -226 114 -240 -1 -7 2 -11 7 -8 9 6 79 -102 74 -116
-1 -5 1 -6 6 -3 5 3 25 -17 46 -44 45 -59 196 -203 246 -235 19 -12 41 -30 49
-39 7 -9 18 -16 23 -16 5 0 28 -13 51 -29 153 -105 426 -198 690 -236 93 -14
160 -16 310 -12 269 7 426 39 648 133 156 66 280 139 1014 604 116 73 251 159
300 190 50 31 167 105 260 165 503 319 614 375 853 425 120 26 298 26 421 0z
m124 -1301 c101 -24 208 -81 275 -145 29 -28 54 -49 55 -48 2 2 9 -7 16 -19 8
-12 10 -19 6 -14 -5 4 -18 -1 -29 -10 -21 -18 -21 -18 -2 5 11 12 15 22 10 23
-5 0 -18 2 -28 4 -36 7 -144 -54 -183 -104 -95 -119 -141 -139 -290 -124 -153
16 -324 -7 -471 -63 -72 -27 -272 -124 -362 -175 -30 -18 -93 -54 -140 -81
-47 -27 -92 -53 -100 -58 -8 -5 -73 -44 -145 -87 -207 -124 -275 -162 -275
-154 0 4 10 13 23 19 17 8 18 11 5 11 -9 1 -20 6 -24 12 -4 8 0 9 15 4 12 -4
21 -2 21 4 0 6 -4 11 -10 11 -5 0 -10 7 -10 15 0 8 -4 15 -10 15 -5 0 -10 8
-10 18 0 23 -30 41 -54 32 -14 -4 -16 -9 -8 -14 7 -4 16 -5 21 -2 5 3 11 -1
15 -9 3 -8 1 -17 -4 -20 -19 -11 -10 -26 11 -20 20 7 20 6 3 -14 l-18 -20 -11
22 c-8 15 -8 24 -1 29 20 14 -4 21 -28 9 -13 -8 -29 -10 -35 -7 -6 4 -11 3
-11 -3 0 -5 6 -11 13 -14 6 -2 -1 -4 -17 -4 -19 0 -24 2 -15 8 7 4 11 11 8 14
-7 7 -69 -27 -69 -37 0 -5 -4 -8 -9 -8 -5 0 -38 -17 -73 -39 -35 -21 -86 -50
-113 -65 -28 -15 -69 -40 -93 -54 -101 -64 -232 -142 -238 -142 -3 0 -18 -8
-32 -19 -60 -42 -294 -164 -359 -187 -52 -18 -52 -18 -71 4 -18 21 -42 30 -42
16 0 -4 11 -17 25 -29 l26 -21 -43 -13 c-24 -7 -53 -17 -66 -22 -13 -5 -33 -9
-45 -8 -17 1 -15 3 11 11 33 11 41 23 20 31 -7 2 1 2 17 -1 34 -5 34 -5 59 -3
15 1 16 4 6 16 -7 8 -20 15 -30 15 -10 0 -23 7 -30 15 -7 8 -18 15 -25 15 -8
0 -16 6 -18 13 -3 6 -6 -3 -6 -20 -1 -35 -21 -47 -21 -13 0 11 -4 20 -10 20
-5 0 -10 -13 -10 -30 0 -16 -5 -30 -11 -30 -6 0 -8 8 -4 19 6 19 -17 51 -36
51 -6 0 -8 4 -4 9 3 6 -20 8 -57 6 -35 -2 -58 -2 -53 0 109 33 186 55 201 58
10 1 25 6 32 11 7 4 20 5 28 2 8 -3 13 -2 10 3 -8 12 20 22 41 14 10 -4 14 -2
10 4 -7 11 146 79 170 77 7 -1 10 2 8 7 -3 4 11 16 32 27 57 27 172 91 228
127 99 63 647 402 920 569 88 54 207 128 265 164 394 245 542 320 729 372 186
53 361 59 524 19z m-1673 -1064 c0 -7 -61 -37 -66 -32 -3 2 10 12 28 20 37 19
38 19 38 12z m-1553 -401 c-3 -3 -12 -4 -19 -1 -8 3 -5 6 6 6 11 1 17 -2 13
-5z m132 -13 c9 -6 10 -10 2 -16 -16 -9 -44 2 -36 15 8 12 16 12 34 1z m-269
-11 c-14 -4 -43 -8 -65 -8 l-40 1 45 7 c65 10 92 10 60 0z m-162 -17 c-10 -2
-28 -2 -40 0 -13 2 -5 4 17 4 22 1 32 -1 23 -4z m462 -3 c0 -5 -4 -10 -10 -10
-5 0 -10 5 -10 10 0 6 5 10 10 10 6 0 10 -4 10 -10z m48 -47 c-10 -2 -26 -2
-35 0 -10 3 -2 5 17 5 19 0 27 -2 18 -5z m-31 -39 c-3 -3 -12 -4 -19 -1 -8 3
-5 6 6 6 11 1 17 -2 13 -5z"/>
<path d="M7600 6152 c0 -4 14 -15 30 -24 17 -9 30 -14 30 -10 0 4 -14 15 -30
24 -17 9 -30 14 -30 10z"/>
<path d="M7666 6094 c-3 -9 -2 -12 5 -9 5 4 18 1 27 -6 13 -11 12 -8 -2 9 -23
26 -22 26 -30 6z"/>
<path d="M4338 4903 c7 -3 16 -2 19 1 4 3 -2 6 -13 5 -11 0 -14 -3 -6 -6z"/>
<path d="M5180 6460 c-20 -12 -5 -24 16 -12 9 5 12 12 7 15 -5 3 -15 2 -23 -3z"/>
<path d="M7393 4217 c-54 -37 -59 -102 -13 -147 26 -25 39 -30 79 -30 91 0
136 72 91 145 -12 19 -30 40 -40 45 -30 16 -83 10 -117 -13z"/>
<path d="M6310 3650 c0 -5 5 -10 11 -10 5 0 7 5 4 10 -3 6 -8 10 -11 10 -2 0
-4 -4 -4 -10z"/>
<path d="M5978 3601 c10 -6 4 -10 -22 -15 -39 -7 -53 -21 -35 -32 7 -4 9 -3 5
4 -7 11 35 23 69 19 30 -3 25 25 -5 30 -17 2 -21 0 -12 -6z"/>
<path d="M6047 3593 c-13 -12 -7 -33 8 -33 8 0 15 9 15 20 0 20 -11 26 -23 13z"/>
<path d="M6098 3559 c-2 -22 0 -43 4 -45 4 -3 8 15 8 40 0 57 -7 60 -12 5z"/>
<path d="M6150 3589 c0 -5 5 -7 10 -4 6 3 10 8 10 11 0 2 -4 4 -10 4 -5 0 -10
-5 -10 -11z"/>
<path d="M6200 3590 c-9 -6 -10 -10 -3 -10 6 0 15 5 18 10 8 12 4 12 -15 0z"/>
<path d="M5951 3551 c-7 -5 -12 -14 -9 -21 2 -7 10 -4 22 9 19 21 12 28 -13
12z"/>
<path d="M5858 3526 c26 -15 37 -28 52 -63 13 -28 17 -31 50 -25 19 3 37 9 40
13 5 7 5 37 1 71 -1 8 -41 -2 -41 -11 0 -4 7 -16 15 -28 13 -19 13 -21 -5 -26
-12 -3 -20 0 -20 7 0 7 -11 23 -25 36 -14 13 -21 26 -16 30 6 3 -8 5 -29 5
-31 0 -35 -2 -22 -9z"/>
<path d="M6020 3521 c0 -5 6 -12 13 -14 9 -4 8 -8 -3 -16 -8 -6 -10 -11 -5
-11 16 0 31 13 38 33 5 13 1 17 -18 17 -14 0 -25 -4 -25 -9z"/>
<path d="M5775 3480 c4 -6 11 -8 16 -5 14 9 11 15 -7 15 -8 0 -12 -5 -9 -10z"/>
<path d="M5929 3413 c-13 -15 -12 -15 9 -4 23 12 28 21 13 21 -5 0 -15 -7 -22
-17z"/>
<path d="M4900 3140 c-8 -5 -10 -10 -5 -10 6 0 17 5 25 10 8 5 11 10 5 10 -5
0 -17 -5 -25 -10z"/>
<path d="M4643 3016 c-6 -8 -9 -16 -6 -19 9 -10 33 4 33 19 0 18 -11 17 -27 0z"/>
<path d="M4574 3005 c-24 -18 -7 -19 26 0 16 9 19 14 9 15 -8 0 -24 -7 -35
-15z"/>
<path d="M4515 3000 c3 -5 10 -10 16 -10 5 0 9 5 9 10 0 6 -7 10 -16 10 -8 0
-12 -4 -9 -10z"/>
<path d="M4470 2973 c11 -8 26 -12 33 -10 6 3 3 6 -8 6 -15 1 -17 3 -6 10 9 6
5 9 -13 9 -26 0 -26 -1 -6 -15z"/>
<path d="M4588 2983 c-10 -2 -18 -9 -18 -15 0 -5 7 -7 16 -4 9 3 22 6 30 6 8
0 14 5 14 10 0 10 -12 11 -42 3z"/>
<path d="M4528 2973 c7 -3 16 -2 19 1 4 3 -2 6 -13 5 -11 0 -14 -3 -6 -6z"/>
<path d="M4640 2972 c0 -6 -7 -12 -15 -14 -10 -2 -12 -8 -6 -17 7 -11 11 -9
21 9 6 12 9 24 6 28 -3 3 -6 0 -6 -6z"/>
<path d="M4670 2972 c0 -12 19 -26 26 -19 2 2 -2 10 -11 17 -9 8 -15 8 -15 2z"/>
<path d="M4728 2942 c-12 -5 -15 -11 -8 -22 8 -13 11 -13 22 1 7 9 20 19 28
22 10 4 9 5 -5 6 -11 0 -28 -3 -37 -7z"/>
<path d="M7861 8147 c-89 -52 -54 -202 48 -202 47 0 96 40 106 85 7 30 -13 88
-36 107 -24 20 -91 25 -118 10z"/>
<path d="M6455 7840 c3 -5 8 -10 11 -10 2 0 4 5 4 10 0 6 -5 10 -11 10 -5 0
-7 -4 -4 -10z"/>
<path d="M5325 7680 c3 -5 15 -10 26 -10 10 0 19 -4 19 -10 0 -5 -7 -10 -15
-10 -13 0 -14 -2 -3 -14 7 -8 15 -10 16 -5 2 5 10 9 18 9 17 0 18 14 2 27 -19
15 -71 26 -63 13z"/>
<path d="M5513 7662 c-6 -4 29 -5 77 -4 79 4 89 2 93 -15 4 -15 5 -15 6 -1 1
12 12 18 39 21 20 2 -17 4 -83 5 -66 1 -125 -2 -132 -6z"/>
<path d="M5848 7663 c28 -2 76 -2 105 0 28 2 5 3 -53 3 -58 0 -81 -1 -52 -3z"/>
<path d="M6093 7663 c9 -2 23 -2 30 0 6 3 -1 5 -18 5 -16 0 -22 -2 -12 -5z"/>
<path d="M1764 7376 c-45 -20 -74 -62 -74 -108 0 -112 119 -163 202 -89 62 55
41 164 -37 197 -42 17 -51 17 -91 0z"/>
<path d="M6475 7300 c-3 -6 1 -7 9 -4 18 7 21 14 7 14 -6 0 -13 -4 -16 -10z"/>
</g>
</svg>
